<svg height="512pt" viewBox="0 -95 512.001 512" width="512pt" xmlns="http://www.w3.org/2000/svg"><path d="m490.769531 242.148438h-375.878906v-72.535157c0-4.691406 3.800781-8.492187 8.492187-8.492187h367.386719c4.691407 0 8.492188 3.800781 8.492188 8.492187v64.046875c0 4.6875-3.800781 8.488282-8.492188 8.488282zm0 0" fill="#d1a190"/><path d="m490.769531 242.148438h-20.566406v-81.027344h20.566406c4.691407 0 8.492188 3.800781 8.492188 8.492187v64.046875c0 4.6875-3.800781 8.488282-8.492188 8.488282zm0 0" fill="#c78e7a"/><path d="m346.804688 191.742188h-79.457032c-3.203125 0-6.128906-1.488282-7.53125-3.828126l-16.0625-26.792968h126.644532l-16.0625 26.792968c-1.402344 2.339844-4.328126 3.828126-7.53125 3.828126zm0 0" fill="#f9efef"/><path d="m370.398438 161.125-16.066407 26.789062c-1.402343 2.339844-4.324219 3.828126-7.523437 3.828126h-20.800782c3.199219 0 6.121094-1.488282 7.523438-3.828126l16.066406-26.789062zm0 0" fill="#e1d3ce"/><path d="m503.511719 162.054688h-367.394531c-4.683594 0-8.484376-3.800782-8.484376-8.488282v-64.050781c0-4.6875 3.800782-8.488281 8.488282-8.488281h367.390625c4.6875 0 8.488281 3.800781 8.488281 8.488281v64.046875c0 4.691406-3.800781 8.492188-8.488281 8.492188zm0 0" fill="#d1a190"/><path d="m503.511719 162.054688h-20.566407v-81.027344h20.566407c4.6875 0 8.488281 3.800781 8.488281 8.488281v64.046875c0 4.691406-3.800781 8.492188-8.488281 8.492188zm0 0" fill="#c78e7a"/><path d="m359.546875 111.644531h-79.460937c-3.203126 0-6.125-1.484375-7.53125-3.824219l-16.0625-26.792968h126.644531l-16.0625 26.792968c-1.402344 2.339844-4.324219 3.824219-7.527344 3.824219zm0 0" fill="#f9efef"/><path d="m383.140625 81.027344-16.066406 26.789062c-1.402344 2.339844-4.324219 3.828125-7.523438 3.828125h-20.804687c3.199218 0 6.121094-1.488281 7.527344-3.828125l16.0625-26.789062zm0 0" fill="#e1d3ce"/><path d="m461.714844 81.027344h-367.390625c-4.6875 0-8.488281-3.800782-8.488281-8.488282v-64.046874c0-4.691407 3.800781-8.492188 8.488281-8.492188h367.390625c4.6875 0 8.488281 3.800781 8.488281 8.492188v64.046874c0 4.6875-3.800781 8.488282-8.488281 8.488282zm0 0" fill="#d1a190"/><path d="m461.714844 81.027344h-20.566406v-81.027344h20.566406c4.6875 0 8.488281 3.800781 8.488281 8.492188v64.046874c0 4.6875-3.800781 8.488282-8.488281 8.488282zm0 0" fill="#c78e7a"/><path d="m317.75 30.617188h-79.460938c-3.203124 0-6.125-1.484376-7.527343-3.824219l-16.066407-26.792969h126.648438l-16.0625 26.792969c-1.40625 2.339843-4.328125 3.824219-7.53125 3.824219zm0 0" fill="#f9efef"/><path d="m341.34375 0-16.066406 26.792969c-1.402344 2.339843-4.324219 3.828125-7.523438 3.828125h-20.804687c3.199219 0 6.125-1.488282 7.527343-3.828125l16.066407-26.792969zm0 0" fill="#e1d3ce"/><path d="m343.917969 235.890625c0 5.382813-2.023438 10.753906-6.019531 14.886719-17.878907 18.503906-52.507813 50.128906-93.132813 65.527344-11.683594 4.421874-24.222656 6.121093-36.664063 5.058593-26.398437-2.230469-78.011718-8.765625-101.472656-26.519531v-18.394531c23.460938 17.769531 75.074219 24.289062 101.472656 26.535156 12.441407 1.046875 24.980469-.636719 36.664063-5.070313 40.625-15.398437 75.253906-47.015624 93.132813-65.519531 1.664062-1.71875 2.980468-3.640625 3.941406-5.691406 1.382812 2.902344 2.078125 6.050781 2.078125 9.1875zm0 0" fill="#ffbfab"/><path d="m338.910156 222.132812c-5.9375-7.085937-15.746094-9.5625-24.332031-6.144531l-54.34375 21.621094c-7.992187 3.179687-16.835937 3.511719-25.046875.9375l-16.328125-5.121094c-3.050781-.957031-3.460937-5.101562-.660156-6.636719l14.5625-7.992187c8.453125-4.636719 11.628906-15.191406 7.140625-23.726563-3.917969-7.453124-12.550782-11.105468-20.632813-8.730468l-63.988281 18.816406c-11.523438 3.386719-23.46875 5.105469-35.480469 5.105469h-13.171875l-5.503906-.574219v85.15625h5.503906v-.003906c23.464844 17.757812 75.074219 24.285156 101.46875 26.523437 12.449219 1.054688 24.984375-.632812 36.667969-5.0625 40.625-15.398437 75.253906-47.019531 93.128906-65.523437 7.617188-7.886719 8.058594-20.242188 1.015625-28.644532zm0 0" fill="#ffcebf"/><path d="m102.695312 303.285156h-28.355468v-97.90625h28.355468c2.171876 0 3.933594 1.761719 3.933594 3.933594v90.039062c0 2.171876-1.761718 3.933594-3.933594 3.933594zm0 0" fill="#f9efef"/><path d="m102.695312 303.285156h-28.355468v-36.0625h32.289062v32.128906c0 2.171876-1.761718 3.933594-3.933594 3.933594zm0 0" fill="#efe2dd"/><path d="m74.644531 312.800781h-70.535156c-2.269531 0-4.109375-1.839843-4.109375-4.113281v-108.710938c0-2.269531 1.839844-4.109374 4.109375-4.109374h70.53125c2.273437 0 4.113281 1.839843 4.113281 4.109374v108.710938c0 2.269531-1.839844 4.113281-4.109375 4.113281zm0 0" fill="#f72c2c"/><path d="m74.644531 312.800781h-70.535156c-2.269531 0-4.109375-1.839843-4.109375-4.113281v-37h78.753906v37c0 2.269531-1.839844 4.113281-4.109375 4.113281zm0 0" fill="#e32929"/></svg>