<svg id="Layer_3" enable-background="new 0 0 64 64" height="512" viewBox="0 0 64 64" width="512" xmlns="http://www.w3.org/2000/svg"><path d="m55 46v-36h-8v-8h-38v44" fill="#4d5d7a"/><path d="m9 38.429c1.936.372 3.943.571 6 .571 16.016 0 29-11.864 29-26.5 0-3.731-.848-7.28-2.371-10.5h-32.629z" fill="#8892a0"/><path d="m3 46h14l4-4v-6h1c1.657 0 3 1.343 3 3v7h10v14c0 1.105-.895 2-2 2h-12l-4-2h-6" fill="#efbe9a"/><circle cx="36" cy="28" fill="#fff" r="10"/><path d="m55 10-8-8v8z" fill="#8892a0"/><path d="m42 54h18c1.105 0 2 .895 2 2v2h-22v-2c0-1.105.895-2 2-2z" fill="#c18e59"/><path d="m44 54v-2c0-1.105.895-2 2-2h10c1.105 0 2 .895 2 2v2" fill="#976947"/><path d="m42 58v4h18v-4" fill="#976947"/><path d="m49 50v-2.751c0-2.794-.651-5.55-1.9-8.05l-.1-.199v-1c0-2.209 1.791-4 4-4 2.209 0 4 1.791 4 4v1l-.1.199c-1.25 2.499-1.9 5.255-1.9 8.05v2.751" fill="#8892a0"/><path d="m2 46h12v14h-12z" fill="#78b75b"/><path d="m26 49h9v2h-9z" fill="#db9b7c"/><path d="m26 53h9v2h-9z" fill="#db9b7c"/><path d="m26 57h9v2h-9z" fill="#db9b7c"/><g fill="#fff"><path d="m12 5h32v2h-32z"/><path d="m12 9h32v2h-32z"/><path d="m12 13h32v2h-32z"/></g><path d="m36 34c-.263 0-.518-.104-.707-.293l-4-4 1.414-1.414 2.928 2.928 3.437-8.592 1.857.742-4 10c-.125.312-.398.541-.728.608-.067.014-.134.021-.201.021z" fill="#8892a0"/></svg>