<svg id="Layer_1_1_" enable-background="new 0 0 96 96" height="512" viewBox="0 0 96 96" width="512" xmlns="http://www.w3.org/2000/svg"><path d="m16 65h71v-12h-71c-3.314 0-6 2.686-6 6 0 3.314 2.686 6 6 6z" fill="#e6e6e6"/><path d="m15 89h75v-16h-75c-4.418 0-8 3.582-8 8 0 4.418 3.582 8 8 8z" fill="#e6e6e6"/><path d="m88 53h-72c-3.314 0-6 2.686-6 6 0 3.314 2.686 6 6 6h72c1.105 0 2 .895 2 2 0 1.105-.895 2-2 2h-72c-5.523 0-10-4.477-10-10 0-5.523 4.477-10 10-10h72c1.105 0 2 .895 2 2 0 1.105-.895 2-2 2z" fill="#63b2b9"/><path d="m91 69h-76c-6.627 0-12 5.373-12 12 0 6.627 5.373 12 12 12h76c1.105 0 2-.895 2-2 0-1.105-.895-2-2-2h-76c-4.418 0-8-3.582-8-8 0-4.418 3.582-8 8-8h76c1.105 0 2-.895 2-2 0-1.105-.895-2-2-2z" fill="#f9be3c"/><path d="m20 77v8l5-2 5 2v-8z" fill="#e6646e"/><path d="m16 17h64v32h-64z" fill="#e6646e"/><path d="m89 25-4 16 4 4 4-4z" fill="#f9be3c"/><path d="m16 20.4 32 9.6 32-9.366v-3.634h-64z" fill="#b4505a"/><path d="m8 15 40 12 41-12-41-12z" fill="#e6646e"/><ellipse cx="48" cy="15" fill="#b4505a" rx="5" ry="2"/><path d="m89 26c-.552 0-1-.447-1-1v-10c0-.553.448-1 1-1s1 .447 1 1v10c0 .553-.448 1-1 1z" fill="#8c645a"/><path d="m80 44h-12c-.552 0-1-.447-1-1s.448-1 1-1h12c.552 0 1 .447 1 1s-.448 1-1 1z" fill="#8c645a"/><circle cx="64" cy="43" fill="#8c645a" r="1"/><circle cx="60" cy="43" fill="#8c645a" r="1"/><circle cx="56" cy="43" fill="#8c645a" r="1"/><g fill="#d2d2d2"><circle cx="29" cy="61" r="1"/><path d="m33 78h-16c-.552 0-1-.447-1-1s.448-1 1-1h16c.552 0 1 .447 1 1s-.448 1-1 1z"/><path d="m55 80h-17c-.552 0-1-.447-1-1s.448-1 1-1h17c.552 0 1 .447 1 1s-.448 1-1 1z"/><path d="m75 80h-16c-.552 0-1-.447-1-1s.448-1 1-1h16c.552 0 1 .447 1 1s-.448 1-1 1z"/><path d="m68 85h-22c-.552 0-1-.447-1-1s.448-1 1-1h22c.552 0 1 .447 1 1s-.448 1-1 1z"/><path d="m85 85h-11c-.552 0-1-.447-1-1s.448-1 1-1h11c.552 0 1 .447 1 1s-.448 1-1 1z"/><path d="m43 58h-19c-.552 0-1-.447-1-1s.448-1 1-1h19c.552 0 1 .447 1 1s-.448 1-1 1z"/><path d="m63 58h-16c-.552 0-1-.447-1-1s.448-1 1-1h16c.552 0 1 .447 1 1s-.448 1-1 1z"/><path d="m53 62h-20c-.552 0-1-.447-1-1s.448-1 1-1h20c.552 0 1 .447 1 1s-.448 1-1 1z"/><path d="m73 62h-11c-.552 0-1-.447-1-1s.448-1 1-1h11c.552 0 1 .447 1 1s-.448 1-1 1z"/><path d="m82 58h-11c-.552 0-1-.447-1-1s.448-1 1-1h11c.552 0 1 .447 1 1s-.448 1-1 1z"/></g><circle cx="20" cy="45" fill="#8c645a" r="1"/><circle cx="20" cy="41" fill="#8c645a" r="1"/><circle cx="20" cy="37" fill="#8c645a" r="1"/><circle cx="24" cy="45" fill="#8c645a" r="1"/><circle cx="24" cy="41" fill="#8c645a" r="1"/><circle cx="28" cy="45" fill="#8c645a" r="1"/><path d="m85 80h-6c-.552 0-1-.447-1-1s.448-1 1-1h6c.552 0 1 .447 1 1s-.448 1-1 1z" fill="#d2d2d2"/><path d="m16 46h64v3h-64z" fill="#b4505a"/></svg>