<svg id="Layer_3" enable-background="new 0 0 64 64" height="512" viewBox="0 0 64 64" width="512" xmlns="http://www.w3.org/2000/svg"><g><g><path d="m22 2h40v54h-40z" fill="#c7e2fc"/></g><g><path d="m14 6h40v52h-40z" fill="#d5fbfe"/></g><g><path d="m8 56v-46h30l10 9v37c0 3.314-2.686 6-6 6v-.042c-3.29 0-5.958-2.667-5.958-5.958z" fill="#c7e2fc"/></g><g><path d="m32.588 10h-24.588v46h15.391c10.317-4.127 17.609-14.209 17.609-26 0-7.837-3.223-14.918-8.412-20z" fill="#ebf7fe"/></g><g><path d="m48 19h-10v-9z" fill="#a1cdfb"/></g><g><path d="m42 62h-34c-3.314 0-6-2.686-6-6h34.042c0 3.29 2.667 5.958 5.958 5.958z" fill="#a1cdfb"/></g><g><path d="m54 59h-6v-2h5v-50h-38v3h-2v-4c0-.553.448-1 1-1h40c.552 0 1 .447 1 1v52c0 .553-.448 1-1 1z"/></g><g><path d="m62 57h-8v-2h7v-52h-38v3h-2v-4c0-.553.448-1 1-1h40c.552 0 1 .447 1 1v54c0 .553-.448 1-1 1z"/></g><g><path d="m48 20h-10c-.552 0-1-.447-1-1v-9h2v8h9z"/></g><g><path d="m13 17h20v2h-20z"/></g><g><path d="m13 21h8v2h-8z"/></g><g><path d="m25 21h8v2h-8z"/></g><g><path d="m13 27h20v2h-20z"/></g><g><path d="m13 31h8v2h-8z"/></g><g><path d="m25 31h8v2h-8z"/></g><g><path d="m23 37h20v2h-20z"/></g><g><path d="m35 41h8v2h-8z"/></g><g><path d="m23 45h20v2h-20z"/></g><g><path d="m35 49h8v2h-8z"/></g><g><path d="m42 63h-34c-3.86 0-7-3.141-7-7 0-.553.448-1 1-1h5v-45c0-.553.448-1 1-1h30c.247 0 .485.092.669.257l10 9c.211.189.331.46.331.743v37c0 3.859-3.14 7-7 7zm-38.899-6c.464 2.279 2.484 4 4.899 4h29.166c-1.082-1.047-1.827-2.44-2.052-4zm5.899-2h27.042c.552 0 1 .447 1 1 0 2.733 2.224 4.958 4.958 4.958.091 0 .18.013.264.035 2.634-.138 4.736-2.324 4.736-4.993v-36.555l-9.384-8.445h-28.616z"/></g></g></svg>