<svg height="512pt" viewBox="-64 0 512 512.001" width="512pt" xmlns="http://www.w3.org/2000/svg"><path d="m342.507812 33.222656h-300.496093c-23.164063 0-42.011719 18.847656-42.011719 42.011719v394.753906c0 23.167969 18.847656 42.011719 42.011719 42.011719h300.496093c23.164063 0 42.011719-18.84375 42.011719-42.011719v-394.753906c0-23.164063-18.847656-42.011719-42.011719-42.011719zm0 0" fill="#e98724"/><path d="m42.011719 33.222656c-23.164063 0-42.011719 18.847656-42.011719 42.011719v394.753906c0 23.167969 18.847656 42.011719 42.011719 42.011719h150.246093v-478.777344zm0 0" fill="#f7941e"/><path d="m324.070312 64.019531h-263.621093c-8.601563 0-15.570313 6.972657-15.570313 15.570313v363.265625c0 8.597656 6.96875 15.570312 15.570313 15.570312h263.621093c8.597657 0 15.570313-6.972656 15.570313-15.570312v-363.261719c0-8.601562-6.972656-15.574219-15.570313-15.574219zm0 0" fill="#c4e8f2"/><path d="m60.449219 64.019531c-8.601563 0-15.570313 6.972657-15.570313 15.570313v363.265625c0 8.597656 6.96875 15.570312 15.570313 15.570312h131.808593v-394.40625zm0 0" fill="#ddf1f8"/><path d="m233.679688 43.46875v-24.886719c0-10.261719-8.320313-18.582031-18.582032-18.582031h-45.675781c-10.261719 0-18.582031 8.320312-18.582031 18.582031v24.886719h-24.898438c-10.261718 0-18.578125 8.320312-18.578125 18.582031v24.847657c0 10.261718 8.316407 18.582031 18.578125 18.582031h132.632813c10.261719 0 18.582031-8.320313 18.582031-18.582031v-24.847657c0-10.261719-8.320312-18.582031-18.582031-18.582031zm0 0" fill="#c3c2c2"/><g fill="#006091"><path d="m81.140625 163.28125h222.238281c8.597656 0 15.570313-6.972656 15.570313-15.570312 0-8.601563-6.972657-15.574219-15.570313-15.574219h-222.238281c-8.597656 0-15.570313 6.972656-15.570313 15.574219 0 8.597656 6.972657 15.570312 15.570313 15.570312zm0 0"/><path d="m303.378906 198.222656h-222.238281c-8.597656 0-15.570313 6.972656-15.570313 15.570313 0 8.601562 6.972657 15.574219 15.570313 15.574219h222.238281c8.597656 0 15.570313-6.972657 15.570313-15.574219 0-8.597657-6.972657-15.570313-15.570313-15.570313zm0 0"/><path d="m303.378906 264.308594h-222.238281c-8.597656 0-15.570313 6.972656-15.570313 15.570312 0 8.601563 6.972657 15.574219 15.570313 15.574219h222.238281c8.597656 0 15.570313-6.972656 15.570313-15.574219 0-8.597656-6.972657-15.570312-15.570313-15.570312zm0 0"/><path d="m303.378906 330.394531h-222.238281c-8.597656 0-15.570313 6.972657-15.570313 15.570313 0 8.601562 6.972657 15.574218 15.570313 15.574218h222.238281c8.597656 0 15.570313-6.972656 15.570313-15.574218 0-8.597656-6.972657-15.570313-15.570313-15.570313zm0 0"/><path d="m303.378906 396.480469h-222.238281c-8.597656 0-15.570313 6.972656-15.570313 15.574219 0 8.597656 6.972657 15.570312 15.570313 15.570312h222.238281c8.597656 0 15.570313-6.972656 15.570313-15.570312 0-8.601563-6.972657-15.574219-15.570313-15.574219zm0 0"/></g><path d="m81.140625 132.136719c-8.597656 0-15.570313 6.972656-15.570313 15.570312 0 8.601563 6.972657 15.574219 15.570313 15.574219h111.117187v-31.144531zm0 0" fill="#0077b1"/><path d="m81.140625 198.222656c-8.597656 0-15.570313 6.972656-15.570313 15.570313 0 8.601562 6.972657 15.574219 15.570313 15.574219h111.117187v-31.144532zm0 0" fill="#0077b1"/><path d="m65.570312 279.882812c0 8.597657 6.972657 15.570313 15.570313 15.570313h111.117187v-31.144531h-111.117187c-8.597656 0-15.570313 6.972656-15.570313 15.574218zm0 0" fill="#0077b1"/><path d="m65.570312 345.96875c0 8.597656 6.972657 15.570312 15.570313 15.570312h111.117187v-31.144531h-111.117187c-8.597656 0-15.570313 6.972657-15.570313 15.574219zm0 0" fill="#0077b1"/><path d="m65.570312 412.054688c0 8.597656 6.972657 15.570312 15.570313 15.570312h111.117187v-31.144531h-111.117187c-8.597656 0-15.570313 6.972656-15.570313 15.574219zm0 0" fill="#0077b1"/><path d="m169.421875 0c-10.261719 0-18.582031 8.320312-18.582031 18.582031v24.886719h-24.894532c-10.265624 0-18.582031 8.320312-18.582031 18.582031v24.847657c0 10.261718 8.316407 18.582031 18.582031 18.582031h66.3125v-105.480469zm0 0" fill="#dbdad9"/></svg>