<svg id="Layer_1" enable-background="new 0 0 512 512" height="512" viewBox="0 0 512 512" width="512" xmlns="http://www.w3.org/2000/svg"><path d="m100.902 78.044c-8.284 0-15 6.724-15 15.019v91.652c0 8.295 6.716 15.019 15 15.019s15-6.725 15-15.019v-91.652c0-8.294-6.715-15.019-15-15.019z" fill="#18302f"/><path d="m512 457.189v9.783c0 24.832-20.21 45.028-45.06 45.028h-421.88c-24.85 0-45.06-20.196-45.06-45.028v-9.783c0-56.793 46.27-102.993 103.13-102.993h305.74c56.86 0 103.13 46.2 103.13 102.993z" fill="#c8ffff"/><path d="m512 457.189v9.783c0 24.832-20.21 45.028-45.06 45.028h-211.82v-157.804h153.75c56.86 0 103.13 46.2 103.13 102.993z" fill="#98f9ff"/><path d="m294.24 335.833v33.774c0 21.558-17.52 39.04-39.12 39.04-10.8 0-20.58-4.366-27.66-11.435s-11.46-16.822-11.46-27.606v-33.774h78.24z" fill="#fcc7be"/><path d="m294.24 335.833v33.774c0 21.558-17.52 39.04-39.12 39.04v-72.814z" fill="#f9a195"/><path d="m369.58 175.005v62.951c0 62.11-50.25 110.753-114.39 110.753h-.07c-64.19-.04-114.46-48.663-114.46-110.753v-62.951z" fill="#ffe0d9"/><path d="m255.12 175.005h114.46v62.951c0 62.11-50.25 110.753-114.39 110.753h-.07z" fill="#fcc7be"/><path d="m369.58 113.386v61.62c0 5.137-2.62 9.913-6.95 12.676-32.19 20.496-69.37 31.33-107.51 31.33-38.15 0-75.32-10.834-107.51-31.33-4.33-2.764-6.95-7.54-6.95-12.676v-61.62c0-8.291 6.72-15.019 15-15.019h198.92c8.28-.001 15 6.728 15 15.019z" fill="#2b4747"/><path d="m362.63 187.682c-32.19 20.496-69.37 31.33-107.51 31.33v-120.646h99.46c8.28 0 15 6.729 15 15.019v61.62c0 5.137-2.62 9.913-6.95 12.677z" fill="#18302f"/><path d="m454.99 82.466c0 6.308-3.93 11.945-9.84 14.108l-183.99 67.457c-1.67.611-3.41.921-5.16.921-.29 0-.59-.01-.88-.03-1.45-.08-2.89-.38-4.28-.891l-183.99-67.457c-5.91-2.163-9.84-7.8-9.84-14.108 0-6.298 3.93-11.935 9.84-14.098l183.99-67.457c1.38-.511 2.83-.801 4.28-.881 2.04-.13 4.1.17 6.04.881l183.99 67.457c5.91 2.163 9.84 7.8 9.84 14.098z" fill="#2a5959"/><path d="m454.99 82.466c0 6.308-3.93 11.945-9.84 14.108l-183.99 67.457c-1.67.611-3.41.921-5.16.921-.29 0-.59-.01-.88-.03v-164.892c2.04-.13 4.1.17 6.04.881l183.99 67.457c5.91 2.163 9.84 7.8 9.84 14.098z" fill="#2b4747"/></svg>