<svg height="496pt" viewBox="0 0 496 496" width="496pt" xmlns="http://www.w3.org/2000/svg"><path d="m456.007812 159.992188.007813-40.015626-39.960937.03125.035156-40.007812h-40.089844v-40h-39.953125l-.03125-40h-51.328125l-284.6875 284.6875v51.34375l39.992188-.023438-.007813 40.015626 39.960937-.03125-.035156 40.007812h40.089844v39.9375l40.03125.054688-.054688 40.007812h51.335938l284.6875-284.6875v-51.34375zm-312.007812 216.007812-88-88 136-136 88 88zm272.414062-144.414062-152-152 23.585938-23.585938 152 152zm0 0" fill="#f0bc5e"/><path d="m221.65625 221.65625-11.3125-11.3125-10.34375 10.34375-16-16-24 24c-5.160156 5.167969-8 12.023438-8 19.3125s2.839844 14.152344 8 19.3125l4.679688 4.6875c2.144531 2.144531 3.320312 4.976562 3.320312 8s-1.175781 5.855469-3.3125 8l-12.6875 12.6875-12.679688-12.6875c-2.144531-2.144531-3.320312-4.976562-3.320312-8s1.175781-5.855469 3.3125-8l10.34375-10.34375-11.3125-11.3125-10.34375 10.34375c-5.160156 5.167969-8 12.023438-8 19.3125 0 5.703125 1.785156 11.105469 5.015625 15.671875l-10.671875 10.671875 11.3125 11.3125 10.34375-10.34375 16 16 24-24c5.160156-5.167969 8-12.023438 8-19.3125s-2.839844-14.152344-8-19.3125l-4.679688-4.6875c-2.144531-2.144531-3.320312-4.976562-3.320312-8s1.175781-5.855469 3.3125-8l12.6875-12.6875 12.679688 12.6875c2.144531 2.144531 3.320312 4.976562 3.320312 8s-1.175781 5.855469-3.3125 8l-10.34375 10.34375 11.3125 11.3125 10.34375-10.34375c5.160156-5.167969 8-12.023438 8-19.3125 0-5.703125-1.785156-11.105469-5.007812-15.671875zm0 0"/><path d="m192 140.6875-147.3125 147.3125 99.3125 99.3125 147.3125-147.3125zm-124.6875 147.3125 124.6875-124.6875 76.6875 76.6875-124.6875 124.6875zm0 0"/><path d="m288 44.6875-34.894531 34.898438 163.308593 163.308593 34.898438-34.894531zm-12.273438 34.898438 12.273438-12.273438 140.6875 140.6875-12.273438 12.273438zm0 0"/><path d="m234.339844 101.660156 11.316406-11.316406 159.996094 160-11.3125 11.3125zm0 0"/><path d="m210.339844 125.660156 11.316406-11.316406 159.996094 160-11.3125 11.3125zm0 0"/><path d="m290.335938 261.65625 11.316406-11.316406 47.996094 48-11.3125 11.3125zm0 0"/><path d="m266.335938 285.65625 11.316406-11.316406 47.996094 48-11.3125 11.3125zm0 0"/><path d="m242.335938 309.65625 11.316406-11.316406 47.996094 48-11.3125 11.3125zm0 0"/><path d="m218.335938 333.652344 11.316406-11.3125 47.996094 48-11.3125 11.3125zm0 0"/><path d="m194.335938 357.652344 11.316406-11.3125 47.996094 48-11.3125 11.3125zm0 0"/><path d="m170.335938 381.652344 11.316406-11.3125 47.996094 47.996094-11.3125 11.316406zm0 0"/></svg>