<svg enable-background="new 0 0 140 140" height="512" viewBox="0 0 140 140" width="512" xmlns="http://www.w3.org/2000/svg"><circle cx="70" cy="70" fill="#de594e" r="64"/><path d="m64.7803192 133.7702026c1.7233276.1392822 3.4604492.2297363 5.2196655.2297363 32.8123169 0 59.8407593-24.6976318 63.5498657-56.5142822l-31.310791-31.310791c-.0245361-.0274658-.0488892-.052124-.0764771-.0765381l-.0369873-.0368652-.0079346.0067139c-.1571655-.1234131-.3460083-.208374-.5576172-.208374h-24.580017c-.3361206 0-.6241455.1938477-.784668.4702148l-9.1482544-9.1481934-.000061.0001221c-1.4205933-1.6397705-3.7654381-3.4354248-5.0369835-3.6220703-1.8500366-.2700195-6.0300293-.0899658-5.9200439 2.8399658 0 0-2.0799561.0400391-2.9400024 1.9300537-.6599731 1.4300537-.0599976 3.7199707.3100586 5.1400146-.0600586.0100098-.1300049.0100098-.1900024.0200195-.710022.1899414-1.0400391 1.2399902-.75 2.3499756.1325073.4893799.3670044.9044189.6480103 1.2005615l-.0021362-.0001221 1.0432129 1.0432129c.5518188 1.958252 1.6355591 3.5927734 3.0509033 4.6063232v1.7399902l-1.6000366.4699707-.0100098-.0100098-4.5299683 1.3300781s-4.9700317 1.5799561-4.8699951 6.0300293c.0299683 1.7199707.039978 3.6298828.039978 5.3299561h-12.5599976c-.5199585 0-.9400024.4200439-.9400024.9400635v2.9399414c0 .2625732.1079102.4985352.2808838.6689453l-.0007935.0002441 4.4699097 4.4698486v29.9310303z" opacity=".1"/><g fill="#fed35b"><path d="m57.255592 49.320538h6.640253v5.888011h-6.640253z"/><ellipse cx="67.347" cy="45.492" rx="2.069" ry="1.327" transform="matrix(.259 -.966 .966 .259 5.987 98.785)"/><ellipse cx="53.805" cy="45.492" rx="1.327" ry="2.069" transform="matrix(.966 -.259 .259 .966 -9.934 15.46)"/></g><ellipse cx="60.576" cy="45.196" fill="#feda6f" rx="6.771" ry="8.6"/><path d="m63.26754 54.226902h-5.3222695l-4.8216743 1.4186363v6.6367073h15.1707382v-6.5761108z" fill="#fed35b"/><path d="m74.9665527 72.3963013h-28.7204246s.0925751-5.7096939 0-10.1495934c-.0925713-4.4442825 4.8720016-6.0271339 4.8720016-6.0271339l4.5403137-1.3198395c1.2874031 1.2345467 3.0255394 1.9811935 4.9479256 1.9811935 1.9266891 0 3.6637726-.7455826 4.9512253-1.9801331l4.5370178 1.318779s4.9689789 1.5828514 4.8719406 6.0271339c-.0926284 4.4398996 0 10.1495935 0 10.1495935z" fill="#4da0dc"/><path d="m68.220932 39.131897c-.2808838-1.6573486-4.3674889-5.3022461-6.2158775-5.5738525-1.8483276-.2717285-6.0202026-.0871582-5.9133911 2.8393555 0 0-2.083313.0400391-2.946228 1.9313965-.8629761 1.8913574.4616699 5.28125.5610962 6.1992188.0993652.9178467.3479614 2.9907227.3479614 2.9907227l.5106201.2294922s-.4987183-2.3986816.0876465-4.5961914c.5532837-2.0732422.7186279-3.548584 1.4882812-4.0385742.0893555-.0568848.1970215-.0722656.3026123-.0631104.8201904.071167 4.6397095.3703613 6.6334229-.0440674.1463623-.0305176.2857666-.0039062.4050293.0861816.5436363.4108887 2.1613121 1.6181641 2.8012047 1.925293.1315918.0631104.2322998.166626.2693481.3078613.3092651 1.1795654.2830811 3.7929688.2767944 6.3210449l.2674561-.1279297s.2338867-2.3709717.5283203-3.8530273.8765259-2.876465.5957031-4.5338136z" fill="#344d5b"/><path d="m37.543289 70.755516h64.913445v35.776474h-64.913445z" fill="#fed35b"/><path d="m106.2733841 67.5809479h-72.5467682c-.5176163 0-.9372025.4196777-.9372025.9372482v2.9408569c0 .5175629.4195862.9372482.9372025.9372482h72.5467682c.5176163 0 .9372025-.4196854.9372025-.9372482v-2.9408569c-.0000001-.5175705-.4195862-.9372482-.9372025-.9372482z" fill="#feda6f"/><path d="m43.631252 78.120461h52.737515v22.062424h-52.737515z" fill="#f4c44e"/><path d="m101.5564346 45.8574333h-24.5720443c-.5084839 0-.9207535.4120789-.9207535.9207153v14.7461891c0 .5084915.4122696.9207191.9207535.9207191h24.5720444c.5085297 0 .9207535-.4122276.9207535-.9207191v-14.746189c-.0000001-.5086365-.4122239-.9207154-.9207536-.9207154z" fill="#344d5b"/><path d="m86.756531 54.675484h5.027773v11.927686h-5.027773z" fill="#467082"/><path d="m94.7499924 66.0788422h-10.9591523c-.4147644 0-.7510147.3362503-.7510147.7509766 0 .4148788.3362503.7511292.7510147.7511292h10.9591522c.4147644 0 .7510147-.3362503.7510147-.7511292.0000001-.4147263-.3362502-.7509766-.7510146-.7509766z" fill="#344d5b"/></svg>