<?xml version="1.0" encoding="utf-8"?>
<svg id="master-artboard" viewBox="0 0 1500 1500" xmlns="http://www.w3.org/2000/svg" width="1500px" height="1500px" version="1.1" style="shape-rendering:geometricPrecision; text-rendering:geometricPrecision; image-rendering:optimizeQuality; fill-rule:evenodd; clip-rule:evenodd"><rect id="ee-background" x="0" y="0" width="1500" height="1500" style="fill: white; fill-opacity: 0; pointer-events: none;"/><g transform="matrix(2.9452941806710755, 0, 0, 2.9452941806710755, -0.00001213406903843861, 0.000004044689376314636)"><path d="M 509.287994 254.643997 A 254.643997 254.643997 0 0 1 254.643997 509.287994 A 254.643997 254.643997 0 0 1 0 254.643997 A 254.643997 254.643997 0 0 1 254.643997 0 A 254.643997 254.643997 0 0 1 509.287994 254.643997 Z" style="fill:#4B5AA7;"/><path style="fill:#F1F3F7;" d="M429.605,118.675H79.682c-13.902,0-25.43,10.511-25.43,23.396v225.144&#10;&#9;c0,12.885,11.528,23.396,25.43,23.396h349.923c13.902,0,25.43-10.511,25.43-23.396V142.072&#10;&#9;C455.036,129.187,443.507,118.675,429.605,118.675z"/><g>
	<path d="M 212.937992 221.074997 A 40.688999 40.688999 0 0 1 172.248993 261.763996 A 40.688999 40.688999 0 0 1 131.559994 221.074997 A 40.688999 40.688999 0 0 1 172.248993 180.385998 A 40.688999 40.688999 0 0 1 212.937992 221.074997 Z" style="fill:#4485C5;"/>
	<path style="fill:#4485C5;" d="M251.931,328.901c-7.46-36.959-40.35-64.763-79.343-64.763s-72.223,27.804-79.682,64.763H251.931z"/>
</g><g>
	<path d="M 279.057007 212.938004 H 416.042007 V 238.368004 H 279.057007 V 212.938004 Z" style="fill:#DEDEDF;"/>
	<path d="M 279.057007 270.919006 H 416.042007 V 296.349007 H 279.057007 V 270.919006 Z" style="fill:#DEDEDF;"/>
</g><g>
</g><g>
</g><g>
</g><g>
</g><g>
</g><g>
</g><g>
</g><g>
</g><g>
</g><g>
</g><g>
</g><g>
</g><g>
</g><g>
</g><g>
</g></g><g transform="matrix(0.9858044981956483, 0, 0, 0.9858045578002931, 788.8566697043444, 475.01043833314293)"><path d="M 507.200012 253.600006 A 253.600006 253.600006 0 0 1 253.600006 507.200012 A 253.600006 253.600006 0 0 1 0 253.600006 A 253.600006 253.600006 0 0 1 253.600006 0 A 253.600006 253.600006 0 0 1 507.200012 253.600006 Z" style="fill:#32BA7C;"/><path style="fill:#0AA06E;" d="M188.8,368l130.4,130.4c108-28.8,188-127.2,188-244.8c0-2.4,0-4.8,0-7.2L404.8,152L188.8,368z"/><g>
	<path style="fill:#FFFFFF;" d="M260,310.4c11.2,11.2,11.2,30.4,0,41.6l-23.2,23.2c-11.2,11.2-30.4,11.2-41.6,0L93.6,272.8&#10;&#9;&#9;c-11.2-11.2-11.2-30.4,0-41.6l23.2-23.2c11.2-11.2,30.4-11.2,41.6,0L260,310.4z"/>
	<path style="fill:#FFFFFF;" d="M348.8,133.6c11.2-11.2,30.4-11.2,41.6,0l23.2,23.2c11.2,11.2,11.2,30.4,0,41.6l-176,175.2&#10;&#9;&#9;c-11.2,11.2-30.4,11.2-41.6,0l-23.2-23.2c-11.2-11.2-11.2-30.4,0-41.6L348.8,133.6z"/>
</g><g>
</g><g>
</g><g>
</g><g>
</g><g>
</g><g>
</g><g>
</g><g>
</g><g>
</g><g>
</g><g>
</g><g>
</g><g>
</g><g>
</g><g>
</g></g></svg>