<svg height="512" viewBox="0 0 64 64" width="512" xmlns="http://www.w3.org/2000/svg"><g id="Calendar"><path d="m3 21h58a0 0 0 0 1 0 0v32a4 4 0 0 1 -4 4h-50a4 4 0 0 1 -4-4v-32a0 0 0 0 1 0 0z" fill="#ffde55"/><path d="m59 21v8a26 26 0 0 1 -26 26h-28a3.961 3.961 0 0 1 -1.64-.36 3.994 3.994 0 0 0 3.64 2.36h50a4 4 0 0 0 4-4v-32z" fill="#e5c84d"/><path d="m57 9h-50a4 4 0 0 0 -4 4v8h58v-8a4 4 0 0 0 -4-4z" fill="#006df0"/><path d="m48 15a3 3 0 0 0 3-3v-6a3 3 0 0 0 -6 0v6a3 3 0 0 0 3 3z" fill="#ff9811"/><path d="m32 15a3 3 0 0 0 3-3v-6a3 3 0 0 0 -6 0v6a3 3 0 0 0 3 3z" fill="#ff9811"/><path d="m16 15a3 3 0 0 0 3-3v-6a3 3 0 0 0 -6 0v6a3 3 0 0 0 3 3z" fill="#ff9811"/><rect fill="#ed1c24" height="5" rx="1" width="6" x="23" y="28"/><rect fill="#ed1c24" height="5" rx="1" width="6" x="11" y="28"/><rect fill="#ed1c24" height="5" rx="1" width="6" x="47" y="28"/><rect fill="#ed1c24" height="5" rx="1" width="6" x="23" y="37"/><rect fill="#ed1c24" height="5" rx="1" width="6" x="11" y="37"/><rect fill="#ed1c24" height="5" rx="1" width="6" x="23" y="46"/><rect fill="#ed1c24" height="5" rx="1" width="6" x="35" y="28"/><rect fill="#ed1c24" height="5" rx="1" width="6" x="35" y="37"/><rect fill="#ed1c24" height="5" rx="1" width="6" x="11" y="46"/><circle cx="49" cy="49" fill="#7ed63e" r="12"/><path d="m49 37c-.338 0-.669.023-1 .05a11.991 11.991 0 0 1 0 23.9c.331.027.662.05 1 .05a12 12 0 0 0 0-24z" fill="#71c138"/><g fill="#231f20"><path d="m57 8h-5v-2a4 4 0 0 0 -8 0v2h-8v-2a4 4 0 0 0 -8 0v2h-8v-2a4 4 0 0 0 -8 0v2h-5a5 5 0 0 0 -5 5v40a5 5 0 0 0 5 5h28a1 1 0 0 0 0-2h-28a3.009 3.009 0 0 1 -3-3v-31h56v17a1 1 0 0 0 2 0v-26a5 5 0 0 0 -5-5zm-11-2a2 2 0 0 1 4 0v6a2 2 0 0 1 -4 0zm-16 0a2 2 0 0 1 4 0v6a2 2 0 0 1 -4 0zm-16 0a2 2 0 0 1 4 0v6a2 2 0 0 1 -4 0zm46 14h-56v-7a3.009 3.009 0 0 1 3-3h5v2a4 4 0 0 0 8 0v-2h8v2a4 4 0 0 0 8 0v-2h8v2a4 4 0 0 0 8 0v-2h5a3.009 3.009 0 0 1 3 3z"/><path d="m30 29a2 2 0 0 0 -2-2h-4a2 2 0 0 0 -2 2v3a2 2 0 0 0 2 2h4a2 2 0 0 0 2-2zm-6 3v-3h4v3z"/><path d="m18 29a2 2 0 0 0 -2-2h-4a2 2 0 0 0 -2 2v3a2 2 0 0 0 2 2h4a2 2 0 0 0 2-2zm-6 3v-3h4v3z"/><path d="m52 34a2 2 0 0 0 2-2v-3a2 2 0 0 0 -2-2h-4a2 2 0 0 0 -2 2v3a2 2 0 0 0 2 2zm-4-5h4v3h-4z"/><path d="m30 38a2 2 0 0 0 -2-2h-4a2 2 0 0 0 -2 2v3a2 2 0 0 0 2 2h4a2 2 0 0 0 2-2zm-6 3v-3h4v3z"/><path d="m18 38a2 2 0 0 0 -2-2h-4a2 2 0 0 0 -2 2v3a2 2 0 0 0 2 2h4a2 2 0 0 0 2-2zm-6 3v-3h4v3z"/><path d="m28 45h-4a2 2 0 0 0 -2 2v3a2 2 0 0 0 2 2h4a2 2 0 0 0 2-2v-3a2 2 0 0 0 -2-2zm-4 5v-3h4v3z"/><path d="m36 34h4a2 2 0 0 0 2-2v-3a2 2 0 0 0 -2-2h-4a2 2 0 0 0 -2 2v3a2 2 0 0 0 2 2zm0-5h4v3h-4z"/><path d="m34 41a2 2 0 0 0 2 2 1 1 0 0 0 0-2v-3h4a1 1 0 0 0 0-2h-4a2 2 0 0 0 -2 2z"/><path d="m16 45h-4a2 2 0 0 0 -2 2v3a2 2 0 0 0 2 2h4a2 2 0 0 0 2-2v-3a2 2 0 0 0 -2-2zm-4 5v-3h4v3z"/><path d="m49 36a13 13 0 1 0 13 13 13.015 13.015 0 0 0 -13-13zm0 24a11 11 0 1 1 11-11 11.013 11.013 0 0 1 -11 11z"/><path d="m54.778 44.808-7.778 7.778-3.535-3.536a1 1 0 0 0 -1.414 1.414l4.242 4.243a1 1 0 0 0 1.414 0l8.485-8.485a1 1 0 0 0 -1.414-1.414z"/></g></g></svg>