<svg xmlns="http://www.w3.org/2000/svg" enable-background="new 0 0 256 256" height="256" width="256" style=""><rect id="backgroundrect" width="100%" height="100%" x="0" y="0" fill="none" stroke="none"/><g class="currentLayer" style=""><title>Layer 1</title><path fill="#ffee9b" fill-opacity="1" stroke="#222222" stroke-opacity="1" stroke-width="2" stroke-dasharray="none" stroke-linejoin="round" stroke-linecap="butt" stroke-dashoffset="" fill-rule="nonzero" opacity="1" marker-start="" marker-mid="" marker-end="" d="M2.006827712059021,127.15008962154388 C2.006827712059021,58.19556421930619 58.393568043550715,2.3423986434936523 128.00682771205902,2.3423986434936523 C197.62008738056738,2.3423986434936523 254.00682771205902,58.19556421930619 254.00682771205902,127.15008962154388 C254.00682771205902,196.10461502378155 197.62008738056738,251.95778059959412 128.00682771205902,251.95778059959412 C58.393568043550715,251.95778059959412 2.006827712059021,196.10461502378155 2.006827712059021,127.15008962154388 z" id="svg_24" class=""/><path d="m130.08 196.375h-118.667c-2.761 0-5-2.239-5-5v-181.25c0-2.761 2.239-5 5-5h118.667c2.761 0 5 2.239 5 5v181.25c0 2.761-2.238 5-5 5z" fill="#ffe2e2" id="svg_1" class=""/><path d="m135.084 10.12v181.26c0 2.76-2.24 5-5 5h-15c2.76 0 5-2.24 5-5v-181.26c0-2.76-2.24-5-5-5h15c2.759 0 5 2.24 5 5z" fill="#ffcfcf" id="svg_2" class=""/><path d="m26.413 196.38h-15c-2.76 0-5-2.24-5-5v-181.26c0-2.76 2.24-5 5-5h15c-2.76 0-5 2.24-5 5v181.26c0 2.76 2.24 5 5 5z" fill="#ffefee" id="svg_3" class=""/><path d="m166.58 250.875h-118.667c-2.761 0-5-2.239-5-5v-181.25c0-2.761 2.239-5 5-5h118.667c2.761 0 5 2.239 5 5v181.25c0 2.761-2.238 5-5 5z" fill="#5fcdff" id="svg_4" class=""/><path d="m171.584 64.62v181.26c0 2.76-2.24 5-5 5h-15c2.76 0 5-2.24 5-5v-181.26c0-2.76-2.24-5-5-5h15c2.759 0 5 2.24 5 5z" fill="#30b6ff" id="svg_5" class=""/><path d="m63.538,252.13 h-15 c-2.7600000000000002,0 -5,-2.24 -5,-5 v-181.26 c0,-2.7600000000000002 2.24,-5 5,-5 h15 c-2.7600000000000002,0 -5,2.24 -5,5 v181.26 c0,2.7600000000000002 2.24,5 5,5 z" fill="#73d7f9" id="svg_6" class=""/><path d="m200.086 158.372h-16.138v32.044c0 2.269-1.839 4.108-4.108 4.108h-16.433c-2.269 0-4.108-1.839-4.108-4.108v-32.044h-16.138c-3.162 0-5.139-3.424-3.558-6.162l28.462-49.298c1.581-2.739 5.534-2.739 7.116 0l28.462 49.298c1.582 2.739-.394 6.162-3.557 6.162z" fill="#009900" id="svg_7" class="" fill-opacity="1"/><path d="m245.459 65.039h-16.141v32.046c0 2.27-1.84 4.11-4.11 4.11h-16.43c-2.27 0-4.11-1.84-4.11-4.11v-32.046h-16.134c-3.162 0-5.139-3.423-3.558-6.162l28.462-49.298c1.581-2.739 5.534-2.739 7.116 0l28.462 49.298c1.582 2.738-.394 6.162-3.557 6.162z" fill="#009900" id="svg_8" class="" fill-opacity="1"/><path d="m174.3 158.375h-15v32.04c0 2.27 1.84 4.11 4.11 4.11h15c-2.27 0-4.11-1.84-4.11-4.11z" fill="#1aeb1a" id="svg_9" class="" fill-opacity="1"/><path d="m179.12 109.745-3.94-6.83c-1.58-2.74-5.53-2.74-7.11 0l-28.47 49.29c-1.58 2.74.4 6.17 3.56 6.17h15c-3.16 0-5.14-3.43-3.56-6.17z" fill="#1aeb1a" id="svg_10" class="" fill-opacity="1"/><path d="m219.668 65.035h-15v32.05c0 2.27 1.84 4.11 4.11 4.11h15c-2.27 0-4.11-1.84-4.11-4.11z" fill="#1aeb1a" id="svg_11" class="" fill-opacity="1"/><path d="m224.498 16.405-3.94-6.83c-1.59-2.74-5.54-2.74-7.12 0l-28.46 49.3c-1.58 2.74.39 6.16 3.56 6.16h15c-3.17 0-5.14-3.42-3.56-6.16z" fill="#1aeb1a" id="svg_12" class="" fill-opacity="1"/><g fill="#242424" id="svg_13" class="" fill-opacity="1"><path d="m85.705,27.73221737575531 h15 c2.209,0 4,-1.791 4,-4 s-1.791,-4 -4,-4 h-15 c-2.209,0 -4,1.791 -4,4 s1.791,4 4,4 z" id="svg_14" fill="#242424" fill-opacity="1"/><path d="m115.705,27.73221737575531 h3.792 c2.209,0 4,-1.791 4,-4 s-1.791,-4 -4,-4 h-3.792 c-2.209,0 -4,1.791 -4,4 s1.791,4 4,4 z" id="svg_15" fill="#242424" fill-opacity="1"/><path d="m80.584,96.81521737575531 h52 c2.209,0 4,-1.791 4,-4 s-1.791,-4 -4,-4 h-52 c-2.209,0 -4,1.791 -4,4 s1.791,4 4,4 z" id="svg_16" fill="#242424" fill-opacity="1"/><path d="m66.584,128.8152173757553 h66.746 c2.209,0 4,-1.791 4,-4 s-1.791,-4 -4,-4 h-66.746 c-2.209,0 -4,1.791 -4,4 s1.791,4 4,4 z" id="svg_17" fill="#242424" fill-opacity="1"/><path d="m66.584,151.8152173757553 h54.416 c2.209,0 4,-1.791 4,-4 s-1.791,-4 -4,-4 h-54.416 c-2.209,0 -4,1.791 -4,4 s1.791,4 4,4 z" id="svg_18" fill="#242424" fill-opacity="1"/><path d="m66.584,174.8152173757553 h65.416 c2.209,0 4,-1.791 4,-4 s-1.791,-4 -4,-4 h-65.416 c-2.209,0 -4,1.791 -4,4 s1.791,4 4,4 z" id="svg_19" fill="#242424" fill-opacity="1"/><path d="m142.33,189.8152173757553 h-75.746 c-2.209,0 -4,1.791 -4,4 s1.791,4 4,4 h75.746 c2.209,0 4,-1.791 4,-4 s-1.791,-4 -4,-4 z" id="svg_20" fill="#242424" fill-opacity="1"/><path d="m142.33,212.8152173757553 h-75.746 c-2.209,0 -4,1.791 -4,4 s1.791,4 4,4 h75.746 c2.209,0 4,-1.791 4,-4 s-1.791,-4 -4,-4 z" id="svg_21" fill="#242424" fill-opacity="1"/><path d="m178.647,100.4722173757553 c-0.7530000000000001,-1.302 -1.8130000000000002,-2.33 -3.061,-3.027 v-33.26 c0,-4.963 -4.037,-9 -9,-9 h-27.5 v-45.5 c0,-4.963 -4.037,-9 -9,-9 h-118.669 c-4.963,0 -9,4.037 -9,9 v181.26 c0,4.963 4.037,9 9,9 h27.5 v45.5 c0,4.963 4.037,9 9,9 h118.67 c4.963,0 9,-4.037 9,-9 v-47.36 h4.25 c4.472,0 8.11,-3.638 8.11,-8.109 v-28.041 h12.141 c6.24,0 10.145,-6.752 7.021,-12.163 zm-139.73,-36.287 v127.76 h-27.5 c-0.552,0 -1,-0.44800000000000006 -1,-1 v-181.26 c0,-0.552 0.44800000000000006,-1 1,-1 h118.67 c0.552,0 1,0.44800000000000006 1,1 v45.5 h-83.17 c-4.963,0 -9,4.037 -9,9 zm128.669,181.26 c0,0.552 -0.44800000000000006,1 -1,1 h-118.669 c-0.552,0 -1,-0.44800000000000006 -1,-1 v-181.26 c0,-0.552 0.44800000000000006,-1 1,-1 h118.67 c0.552,0 1,0.44800000000000006 1,1 v33.298 c-1.215,0.6960000000000002 -2.247,1.713 -2.983,2.99 l-28.462,49.298 c-3.12,5.405 0.774,12.163 7.021,12.163 h12.134 v28.041 c0,4.472 3.6390000000000002,8.109 8.11,8.109 h4.18 v47.361 zm12.361,-55.47 c0,0.06100000000000001 -0.05000000000000001,0.10900000000000001 -0.11000000000000001,0.10900000000000001 h-16.43 c-0.06100000000000001,0 -0.11000000000000001,-0.04900000000000001 -0.11000000000000001,-0.10900000000000001 v-28.041 h16.65 zm20.233,-36.095 c-0.030000000000000006,0.05400000000000001 -0.04600000000000001,0.05400000000000001 -0.09300000000000003,0.05400000000000001 c-0.29300000000000004,0 -57.166,0.08900000000000002 -57.019,-0.16300000000000003 l28.462,-49.298 c0.020000000000000004,-0.03400000000000001 0.04900000000000001,-0.04500000000000001 0.07900000000000001,-0.05000000000000001 c0.009000000000000003,0 0.018000000000000002,-0.0020000000000000005 0.027000000000000007,-0.0020000000000000005 c0.031000000000000007,0.004000000000000001 0.06200000000000001,0.018000000000000002 0.08300000000000002,0.05300000000000001 l28.462,49.298 c0.024000000000000004,0.03900000000000001 0.031000000000000007,0.05400000000000001 -0.0010000000000000002,0.10800000000000001 z" id="svg_22" fill="#242424" fill-opacity="1"/><path d="m252.484,56.43821737575531 l-28.462,-49.298 c-3.118,-5.401 -10.921,-5.412 -14.044,0 l-28.462,49.298 c-3.12,5.404 0.773,12.162 7.021,12.162 h12.139 v28.045 c0,4.472 3.6390000000000002,8.11 8.11,8.11 h16.43 c4.472,0 8.11,-3.6390000000000002 8.11,-8.11 v-28.045 h12.136 c6.241,0 10.146,-6.751 7.022,-12.162 zm-27.157,40.207 c0,0.06100000000000001 -0.05000000000000001,0.11000000000000001 -0.11000000000000001,0.11000000000000001 h-16.43 c-0.06100000000000001,0 -0.11000000000000001,-0.05000000000000001 -0.11000000000000001,-0.11000000000000001 v-28.045 h16.65 zm20.229,-36.099 c-0.031000000000000007,0.05400000000000001 -0.04700000000000001,0.05400000000000001 -0.09400000000000003,0.05400000000000001 h-56.925 c-0.04700000000000001,0 -0.06300000000000001,0 -0.09400000000000003,-0.05400000000000001 c-0.031000000000000007,-0.05500000000000001 -0.023000000000000007,-0.06800000000000002 0,-0.10800000000000001 l28.462,-49.298 h0.0010000000000000002 c0.022000000000000006,-0.04100000000000001 0.030000000000000006,-0.05500000000000001 0.09300000000000003,-0.05500000000000001 s0.07100000000000001,0.014000000000000002 0.09500000000000003,0.05500000000000001 l28.462,49.298 c0.024000000000000004,0.04000000000000001 0.031000000000000007,0.05400000000000001 0,0.10800000000000001 z" id="svg_23" fill="#242424" fill-opacity="1"/></g></g></svg>